<?xml version="1.0" encoding="utf-8"?>
<!DOCTYPE svg PUBLIC "-//W3C//DTD SVG 1.1//EN" "http://www.w3.org/Graphics/SVG/1.1/DTD/svg11.dtd">
<svg version="1.1" id="AE" xmlns="http://www.w3.org/2000/svg" xmlns:xlink="http://www.w3.org/1999/xlink" x="0px" y="0px" width="478px" height="151px" viewBox="0 -5 485 160" xml:space="preserve">
    <g id="AE">
        <path fill="transparent" stroke-linejoin="bevel" stroke-linecap="square" stroke="#f81" stroke-width="4" d="M118,28.6V5.649H36.115L0.241,112.748h25.2l6.406-19.125H54v19.125h64v-22.95H78V70.674h40v-22.95H78V28.6
		H118z M54,70.674H39.535L53.629,28.6H54V70.674z" />
    </g>
    <g id="thing">
        <path fill="transparent" stroke-linejoin="bevel" stroke-linecap="square" stroke="#999" stroke-width="4" d="M168,41.986l3.75,9.563H186l6-22.949h-24V5.649h-24V28.6h-6v22.949h6v40.162h0.05c0.527,11.699,10.584,21.037,22.95,21.037
		h25v-22.95h-14c-5.523,0-10-4.28-10-9.562V51.549V41.986z M251,28.6c-4.615,0-19,0-19,0c-1.051,0-2.05,0.205-2.97,0.558L224,41.986
		V5.649h-24v107.099h24V59.199c0-4.226,3.582-7.65,8-7.65h8c5.521,0,10,4.281,10,9.563v51.637h24V50.593
		C274,38.446,263.702,28.6,251,28.6z M371,28.6c-4.615,0-19,0-19,0c-1.053,0-2.051,0.205-2.97,0.558L344,41.986V28.6h-24v84.148h24
		V59.199c0-4.226,3.581-7.65,8-7.65h8c5.521,0,10,4.281,10,9.563v51.637h24V50.593C394,38.446,383.701,28.6,371,28.6z M454,28.6
		v7.649v7.65l-5.881-14.994c-0.68-0.18-1.381-0.306-2.119-0.306c0,0-14.387,0-19,0c-12.703,0-23,9.847-23,21.993v40.162
		c0,12.146,10.297,21.993,23,21.993c4.613,0,19,0,19,0c0.738,0,1.439-0.127,2.119-0.308l4.539-11.574
		c0.846,1.213,1.342,2.666,1.342,4.229v13.39c0,5.281-4.479,9.563-10,9.563h-22l-4,22.949h37c12.701,0,23-9.848,23-21.993
		c0-20.942,0-100.404,0-100.404L454,28.6L454,28.6z M454,82.148c0,4.225-3.582,7.647-8,7.647h-8c-5.523,0-10-4.28-10-9.563V61.111
		c0-5.281,4.477-9.563,10-9.563h8c4.418,0,8,3.425,8,7.65V82.148z M297,41.068c-5.059,0-9.375-2.094-11.143-5.055H285V113h24V36.014
		h-0.859C306.373,38.975,302.057,41.068,297,41.068z M297,19.002c-6.627,0-12,4.042-12,9.028c0,4.987,5.373,9.029,12,9.029
		s12-4.042,12-9.029C309,23.044,303.627,19.002,297,19.002z" />
    </g>
</svg>
