<svg width="136" height="40" viewBox="0 0 136 40" fill="none" xmlns="http://www.w3.org/2000/svg">
<g clip-path="url(#clip0)">
<path d="M31.4676 7.57613V1.4964H9.63109L0.0644531 29.867H6.78489L8.49319 24.8008H14.4005V29.867H31.4676V23.7875H20.8007V18.7216H31.4676V12.6421H20.8007V7.57613H31.4676ZM14.4005 18.7216H10.5431L14.3016 7.57613H14.4005V18.7216Z" fill="#FFC120"/>
<path d="M66.9349 7.57622C65.7042 7.57622 61.8681 7.57622 61.8681 7.57622C61.5878 7.57622 61.3214 7.63052 61.0763 7.72403L59.7347 11.1222V1.49648L53.3345 -0.0232544V29.8671H59.7347V15.6819C59.7347 14.5624 60.6899 13.6554 61.8681 13.6554H64.0015C65.474 13.6554 66.6682 14.7895 66.6682 16.1887V29.8673H73.0683V13.4022C73.0683 10.1844 70.3221 7.57622 66.9349 7.57622ZM45.801 13.6554H49.6011L51.2011 7.57622H44.801V1.49648L38.4008 -0.0232544V7.57622H36.8008V13.6554H38.4008V24.2944H38.4142C38.5547 27.3934 41.2366 29.8671 44.5343 29.8671H51.2011V23.7876H47.4677C45.9949 23.7876 44.801 22.6536 44.801 21.2546V11.1222L45.801 13.6554ZM79.2018 10.879C77.8533 10.879 76.7018 10.3243 76.2308 9.53993H76.0018V29.9338H82.4019V9.54019H82.1728C81.7016 10.3246 80.5504 10.879 79.2018 10.879ZM121.07 7.57622V11.6292L119.501 7.65728C119.32 7.60959 119.133 7.57622 118.936 7.57622C118.936 7.57622 115.1 7.57622 113.869 7.57622C110.482 7.57622 107.736 10.1847 107.736 13.4022V24.0411C107.736 27.2586 110.482 29.8671 113.869 29.8671C115.1 29.8671 118.936 29.8671 118.936 29.8671C119.133 29.8671 119.32 29.8334 119.501 29.7858L120.712 26.7195C120.937 27.0409 121.07 27.4258 121.07 27.8403V31.3868C121.07 32.7858 119.875 33.9201 118.403 33.9201H112.536L111.469 39.9993H121.336C124.723 39.9993 127.47 37.3908 127.47 34.1733C127.47 28.6258 127.47 7.57622 127.47 7.57622H121.07ZM121.07 21.7611C121.07 22.8803 120.114 23.7873 118.936 23.7873H116.803C115.33 23.7873 114.136 22.6533 114.136 21.2544V16.1884C114.136 14.7895 115.33 13.6552 116.803 13.6552H118.936C120.114 13.6552 121.07 14.5624 121.07 15.6816V21.7611ZM79.2018 5.0337C77.4346 5.0337 76.0018 6.10443 76.0018 7.42522C76.0018 8.74628 77.4346 9.81701 79.2018 9.81701C80.9691 9.81701 82.4019 8.74628 82.4019 7.42522C82.4019 6.10443 80.9691 5.0337 79.2018 5.0337ZM98.9357 7.57622C97.705 7.57622 93.8689 7.57622 93.8689 7.57622C93.5883 7.57622 93.3222 7.63052 93.0771 7.72403L91.7355 11.1222V7.57622H85.3353V29.8671H91.7355V15.6819C91.7355 14.5624 92.6904 13.6554 93.8689 13.6554H96.0022C97.4748 13.6554 98.669 14.7895 98.669 16.1887V29.8673H105.069V13.4022C105.069 10.1844 102.323 7.57622 98.9357 7.57622Z" fill="white"/>
</g>
<defs>
<clipPath id="clip0">
<rect width="136" height="40" fill="white"/>
</clipPath>
</defs>
</svg>
