<svg width="24" height="28" viewBox="0 0 24 28" fill="none" xmlns="http://www.w3.org/2000/svg">
<line opacity="0.65" x1="4.41421" y1="2" x2="17.8492" y2="15.435" stroke="black" stroke-width="2" stroke-linecap="round" stroke-linejoin="round"/>
<line opacity="0.65" x1="4" y1="15.5858" x2="17.435" y2="2.15076" stroke="black" stroke-width="2" stroke-linecap="round" stroke-linejoin="round"/>
<path opacity="0.65" d="M4.776 20.128V21.256C4.59467 21.1387 4.39733 21.0507 4.184 20.992C3.97067 20.9333 3.74933 20.904 3.52 20.904C3.216 20.904 2.93067 20.9627 2.664 21.08C2.40267 21.192 2.176 21.344 1.984 21.536C1.792 21.7227 1.64 21.944 1.528 22.2C1.416 22.456 1.36 22.7227 1.36 23C1.36 23.2827 1.416 23.5547 1.528 23.816C1.64 24.072 1.792 24.2987 1.984 24.496C2.176 24.688 2.40267 24.8427 2.664 24.96C2.93067 25.072 3.216 25.128 3.52 25.128C3.74933 25.128 3.97067 25.0987 4.184 25.04C4.39733 24.9813 4.59467 24.8933 4.776 24.776V25.904C4.57867 26 4.368 26.072 4.144 26.12C3.92 26.168 3.69067 26.192 3.456 26.192C2.992 26.192 2.56 26.1093 2.16 25.944C1.76 25.7733 1.41333 25.5467 1.12 25.264C0.832 24.976 0.605333 24.6373 0.44 24.248C0.274667 23.8587 0.192 23.4453 0.192 23.008C0.192 22.5707 0.274667 22.16 0.44 21.776C0.605333 21.3867 0.832 21.0507 1.12 20.768C1.41333 20.48 1.76 20.2533 2.16 20.088C2.56 19.9227 2.992 19.84 3.456 19.84C3.69067 19.84 3.92 19.864 4.144 19.912C4.368 19.96 4.57867 20.032 4.776 20.128ZM5.4545 20.032H6.6145V24.952H8.6705V26H5.4545V20.032ZM11.9482 19.84C12.4015 19.84 12.8282 19.9227 13.2282 20.088C13.6282 20.2533 13.9722 20.48 14.2602 20.768C14.5535 21.0507 14.7829 21.3867 14.9482 21.776C15.1189 22.16 15.2042 22.5707 15.2042 23.008C15.2042 23.4453 15.1189 23.8587 14.9482 24.248C14.7829 24.6373 14.5535 24.976 14.2602 25.264C13.9722 25.5467 13.6282 25.7733 13.2282 25.944C12.8282 26.1093 12.4015 26.192 11.9482 26.192C11.4895 26.192 11.0602 26.1093 10.6602 25.944C10.2602 25.7733 9.91352 25.5467 9.62019 25.264C9.33219 24.976 9.10285 24.6373 8.93219 24.248C8.76685 23.8587 8.68419 23.4453 8.68419 23.008C8.68419 22.5707 8.76685 22.16 8.93219 21.776C9.10285 21.3867 9.33219 21.0507 9.62019 20.768C9.91352 20.48 10.2602 20.2533 10.6602 20.088C11.0602 19.9227 11.4895 19.84 11.9482 19.84ZM11.9482 20.904C11.6495 20.904 11.3722 20.96 11.1162 21.072C10.8602 21.184 10.6389 21.336 10.4522 21.528C10.2655 21.7147 10.1189 21.936 10.0122 22.192C9.90552 22.448 9.85219 22.72 9.85219 23.008C9.85219 23.296 9.90552 23.5707 10.0122 23.832C10.1189 24.088 10.2655 24.312 10.4522 24.504C10.6389 24.696 10.8602 24.848 11.1162 24.96C11.3722 25.072 11.6495 25.128 11.9482 25.128C12.2415 25.128 12.5162 25.072 12.7722 24.96C13.0282 24.848 13.2495 24.696 13.4362 24.504C13.6229 24.312 13.7695 24.088 13.8762 23.832C13.9829 23.5707 14.0362 23.296 14.0362 23.008C14.0362 22.72 13.9829 22.448 13.8762 22.192C13.7695 21.936 13.6229 21.7147 13.4362 21.528C13.2495 21.336 13.0282 21.184 12.7722 21.072C12.5162 20.96 12.2415 20.904 11.9482 20.904ZM18.6816 20.056L18.6656 21.088C18.527 21.0347 18.359 20.9893 18.1616 20.952C17.9643 20.9147 17.7776 20.896 17.6016 20.896C17.271 20.896 17.031 20.9493 16.8816 21.056C16.7376 21.1573 16.6656 21.2933 16.6656 21.464C16.6656 21.624 16.7483 21.784 16.9136 21.944C17.079 22.0987 17.343 22.3013 17.7056 22.552C18.1376 22.856 18.479 23.152 18.7296 23.44C18.9856 23.7227 19.1136 24.0453 19.1136 24.408C19.1136 24.8987 18.9136 25.304 18.5136 25.624C18.119 25.9387 17.5963 26.096 16.9456 26.096C16.8443 26.096 16.7296 26.0907 16.6016 26.08C16.4736 26.0693 16.3456 26.0533 16.2176 26.032C16.0896 26.016 15.967 25.9973 15.8496 25.976C15.7323 25.9547 15.639 25.9333 15.5696 25.912L15.5856 24.864C15.655 24.8907 15.743 24.92 15.8496 24.952C15.9616 24.9787 16.0816 25.0053 16.2096 25.032C16.3376 25.0533 16.471 25.072 16.6096 25.088C16.7536 25.104 16.8896 25.112 17.0176 25.112C17.3216 25.112 17.551 25.0453 17.7056 24.912C17.8603 24.7787 17.9376 24.6267 17.9376 24.456C17.9376 24.2907 17.8523 24.128 17.6816 23.968C17.5163 23.8027 17.2523 23.5973 16.8896 23.352C16.367 22.9947 16.0043 22.6773 15.8016 22.4C15.6043 22.1173 15.5056 21.808 15.5056 21.472C15.5056 21.2747 15.5456 21.0827 15.6256 20.896C15.7056 20.704 15.8283 20.536 15.9936 20.392C16.1643 20.248 16.383 20.1333 16.6496 20.048C16.9163 19.9573 17.2336 19.912 17.6016 19.912C17.783 19.912 17.9696 19.928 18.1616 19.96C18.359 19.9867 18.5323 20.0187 18.6816 20.056ZM19.6967 26V20.032H22.9527V21.04H20.8567V22.432H22.7527V23.44H20.8567V24.992H23.0167V26H19.6967Z" fill="black"/>
</svg>
