<svg width="43" height="40" viewBox="0 0 43 40" fill="none" xmlns="http://www.w3.org/2000/svg">
<path d="M13.608 2.70088C13.1694 3.03654 13.086 3.66418 13.4216 4.10276C13.7573 4.54135 14.3849 4.62479 14.8235 4.28914L13.608 2.70088ZM14.3078 3.42457L13.7 2.63044V2.63044L14.3078 3.42457ZM0.392249 12.815C-0.0463358 13.1506 -0.129779 13.7783 0.205873 14.2169C0.541525 14.6554 1.16917 14.7389 1.60775 14.4032L0.392249 12.815ZM8.21562 9.34619C8.6542 9.01054 8.73765 8.38289 8.402 7.94431C8.06634 7.50572 7.4387 7.42228 7.00012 7.75793L8.21562 9.34619ZM35.5182 7.76404C35.083 7.42403 34.4546 7.5012 34.1146 7.93642C33.7746 8.37163 33.8517 9.00007 34.287 9.34009L35.5182 7.76404ZM40.76 14.3971C41.1952 14.7371 41.8236 14.66 42.1637 14.2248C42.5037 13.7895 42.4265 13.1611 41.9913 12.8211L40.76 14.3971ZM41.3756 14.0254H42.3756C42.3756 13.6431 42.1578 13.2944 41.8143 13.1267C41.4708 12.959 41.0618 13.0018 40.7605 13.237L41.3756 14.0254ZM41.3756 39V40C41.9279 40 42.3756 39.5523 42.3756 39H41.3756ZM1 39H0C0 39.5523 0.447715 40 1 40L1 39ZM2 14.0254C2 13.4731 1.55228 13.0254 1 13.0254C0.447715 13.0254 0 13.4731 0 14.0254H2ZM8.07632 3.61928V2.61928C7.52403 2.61928 7.07632 3.06699 7.07632 3.61928H8.07632ZM34.5078 3.61928H35.5078C35.5078 3.06699 35.0601 2.61928 34.5078 2.61928V3.61928ZM33.5078 19.4365C33.5078 19.9888 33.9555 20.4365 34.5078 20.4365C35.0601 20.4365 35.5078 19.9888 35.5078 19.4365H33.5078ZM7.07632 19.4365C7.07632 19.9888 7.52403 20.4365 8.07632 20.4365C8.6286 20.4365 9.07632 19.9888 9.07632 19.4365H7.07632ZM1.7192 13.237C1.28379 12.8972 0.655391 12.9748 0.315637 13.4102C-0.0241181 13.8456 0.0534289 14.474 0.488843 14.8137L1.7192 13.237ZM14.2249 25.532C14.6603 25.8718 15.2887 25.7942 15.6284 25.3588C15.9682 24.9234 15.8907 24.295 15.4552 23.9552L14.2249 25.532ZM27.0243 23.9552C26.5888 24.295 26.5113 24.9234 26.851 25.3588C27.1908 25.7942 27.8192 25.8718 28.2546 25.532L27.0243 23.9552ZM33.5827 29.5818L34.1983 28.7938L33.5827 29.5818ZM40.76 36.4581C41.1952 36.7981 41.8236 36.7209 42.1637 36.2857C42.5037 35.8505 42.4265 35.222 41.9913 34.882L40.76 36.4581ZM0.392249 34.8759C-0.0463358 35.2116 -0.129779 35.8392 0.205873 36.2778C0.541525 36.7164 1.16917 36.7998 1.60775 36.4642L0.392249 34.8759ZM9.11477 29.4598L9.72252 30.2539L9.11477 29.4598ZM14.8235 4.28914L14.9155 4.2187L13.7 2.63044L13.608 2.70088L14.8235 4.28914ZM1.60775 14.4032L8.21562 9.34619L7.00012 7.75793L0.392249 12.815L1.60775 14.4032ZM34.287 9.34009L40.76 14.3971L41.9913 12.8211L35.5182 7.76404L34.287 9.34009ZM14.9155 4.2187C18.7281 1.30087 24.0306 1.32732 27.8139 4.28303L29.0452 2.70699C24.5442 -0.80942 18.2359 -0.840887 13.7 2.63044L14.9155 4.2187ZM40.3756 14.0254V39H42.3756V14.0254H40.3756ZM41.3756 38H1V40H41.3756V38ZM2 39V14.0254H0V39H2ZM8.07632 4.61928H34.5078V2.61928H8.07632V4.61928ZM33.5078 3.61928V19.4365H35.5078V3.61928H33.5078ZM9.07632 19.4365V3.61928H7.07632V19.4365H9.07632ZM0.488843 14.8137L14.2249 25.532L15.4552 23.9552L1.7192 13.237L0.488843 14.8137ZM40.7605 13.237L27.0243 23.9552L28.2546 25.532L41.9908 14.8138L40.7605 13.237ZM32.967 30.3698L40.76 36.4581L41.9913 34.882L34.1983 28.7938L32.967 30.3698ZM1.60775 36.4642L9.72252 30.2539L8.50701 28.6656L0.392249 34.8759L1.60775 36.4642ZM34.1983 28.7938C26.6626 22.9065 16.1011 22.8538 8.50701 28.6656L9.72252 30.2539C16.5933 24.9956 26.149 25.0433 32.967 30.3698L34.1983 28.7938ZM20.1878 7.64703V19.0937H22.1878V7.64703H20.1878ZM26.911 12.2563H15.4643V14.2563H26.911V12.2563Z" fill="url(#paint0_linear)"/>
<defs>
<linearGradient id="paint0_linear" x1="10.0845" y1="25.7994" x2="37.9399" y2="25.8355" gradientUnits="userSpaceOnUse">
<stop stop-color="#6147E2"/>
<stop offset="0.515625" stop-color="#FFC120"/>
</linearGradient>
</defs>
</svg>
