<svg width="55" height="55" viewBox="0 0 55 55" fill="none" xmlns="http://www.w3.org/2000/svg">
<path fill-rule="evenodd" clip-rule="evenodd" d="M7.87745 23.9003C6.09304 25.1091 4.92054 26.5363 4.36821 28.0222H32.1061C31.5537 26.5363 30.3813 25.1091 28.5968 23.9003C26.0314 22.1624 22.3746 21.0228 18.2371 21.0228C14.0997 21.0228 10.4429 22.1624 7.87745 23.9003ZM34.2065 28.0222C32.8182 22.9023 26.1964 19.0228 18.2371 19.0228C10.2778 19.0228 3.65613 22.9023 2.26776 28.0222C2.09189 28.6707 2 29.3392 2 30.0222H4H32.4743H34.4743C34.4743 29.3392 34.3824 28.6707 34.2065 28.0222ZM18.3273 17.2847C20.8743 17.2847 23.5293 14.6677 23.5293 10.6424C23.5293 6.61696 20.8743 4 18.3273 4C15.7803 4 13.1253 6.61696 13.1253 10.6424C13.1253 14.6677 15.7803 17.2847 18.3273 17.2847ZM18.3273 19.2847C22.3048 19.2847 25.5293 15.4154 25.5293 10.6424C25.5293 5.86931 22.3048 2 18.3273 2C14.3498 2 11.1253 5.86931 11.1253 10.6424C11.1253 15.4154 14.3498 19.2847 18.3273 19.2847ZM30.7165 4.57129C29.6092 4.57129 28.4978 5.26971 27.6971 6.60828L25.9807 5.58162C27.024 3.83753 28.702 2.57129 30.7165 2.57129C32.5052 2.57129 34.0355 3.57418 35.0808 5.0174C36.1269 6.4618 36.7431 8.40744 36.7431 10.5114C36.7431 12.6153 36.1269 14.5609 35.0808 16.0053C34.8491 16.3251 34.5937 16.6233 34.3169 16.8938C39.3999 18.4177 43.0286 23.6907 43.0286 29.7602V30.7602H42.0286H36.0537V28.7602H40.9914C40.5518 22.8739 36.267 18.4514 31.2911 18.4514V18.4165C31.1028 18.4395 30.9112 18.4514 30.7165 18.4514V16.4514C31.704 16.4514 32.687 15.9007 33.461 14.8321C34.2341 13.7647 34.7431 12.2403 34.7431 10.5114C34.7431 8.78239 34.2341 7.25799 33.461 6.19058C32.687 5.12199 31.704 4.57129 30.7165 4.57129Z" fill="url(#paint0_linear)"/>
<path fill-rule="evenodd" clip-rule="evenodd" d="M44.0072 48.0553L39.7548 46.145L40.5598 44.3142L44.8123 46.2245L44.0072 48.0553ZM44.0072 39.4589L39.7548 42.3243L38.6536 40.6548L42.9061 37.7893L44.0072 39.4589ZM47.7872 39.6081C49.4026 39.6081 50.7484 38.2786 50.7484 36.5935C50.7484 34.9084 49.4026 33.579 47.7872 33.579C46.1719 33.579 44.826 34.9084 44.826 36.5935C44.826 38.2786 46.1719 39.6081 47.7872 39.6081ZM47.7872 41.6081C50.5272 41.6081 52.7484 39.363 52.7484 36.5935C52.7484 33.8241 50.5272 31.579 47.7872 31.579C45.0473 31.579 42.826 33.8241 42.826 36.5935C42.826 39.363 45.0473 41.6081 47.7872 41.6081ZM35.5022 46.7716C37.1175 46.7716 38.4634 45.4422 38.4634 43.7571C38.4634 42.072 37.1175 40.7426 35.5022 40.7426C33.8869 40.7426 32.541 42.072 32.541 43.7571C32.541 45.4422 33.8869 46.7716 35.5022 46.7716ZM35.5022 48.7716C38.2422 48.7716 40.4634 46.5266 40.4634 43.7571C40.4634 40.9876 38.2422 38.7426 35.5022 38.7426C32.7622 38.7426 30.541 40.9876 30.541 43.7571C30.541 46.5266 32.7622 48.7716 35.5022 48.7716ZM48.9682 51.893C50.5836 51.893 51.9294 50.5635 51.9294 48.8784C51.9294 47.1933 50.5836 45.8639 48.9682 45.8639C47.3529 45.8639 46.007 47.1933 46.007 48.8784C46.007 50.5635 47.3529 51.893 48.9682 51.893ZM48.9682 53.893C51.7082 53.893 53.9294 51.6479 53.9294 48.8784C53.9294 46.109 51.7082 43.8639 48.9682 43.8639C46.2283 43.8639 44.007 46.109 44.007 48.8784C44.007 51.6479 46.2283 53.893 48.9682 53.893Z" fill="url(#paint1_linear)"/>
<defs>
<linearGradient id="paint0_linear" x1="11.2314" y1="20.7567" x2="39.5372" y2="20.8059" gradientUnits="userSpaceOnUse">
<stop stop-color="#6147E2"/>
<stop offset="0.515625" stop-color="#FFC120"/>
</linearGradient>
<linearGradient id="paint1_linear" x1="35.8034" y1="46.1316" x2="51.9392" y2="46.1522" gradientUnits="userSpaceOnUse">
<stop stop-color="#6147E2"/>
<stop offset="0.515625" stop-color="#FFC120"/>
</linearGradient>
</defs>
</svg>
