<svg width="55" height="55" viewBox="0 0 55 55" fill="none" xmlns="http://www.w3.org/2000/svg">
<path fill-rule="evenodd" clip-rule="evenodd" d="M7.87745 23.9003C6.09304 25.1091 4.92054 26.5363 4.36821 28.0222H32.1061C31.5537 26.5363 30.3813 25.1091 28.5968 23.9003C26.0314 22.1624 22.3746 21.0228 18.2371 21.0228C14.0997 21.0228 10.4429 22.1624 7.87745 23.9003ZM34.2065 28.0222C32.8182 22.9023 26.1964 19.0228 18.2371 19.0228C10.2778 19.0228 3.65613 22.9023 2.26776 28.0222C2.09189 28.6707 2 29.3392 2 30.0222H4H32.4743H34.4743C34.4743 29.3392 34.3824 28.6707 34.2065 28.0222ZM18.3273 17.2847C20.8743 17.2847 23.5293 14.6677 23.5293 10.6424C23.5293 6.61696 20.8743 4 18.3273 4C15.7803 4 13.1253 6.61696 13.1253 10.6424C13.1253 14.6677 15.7803 17.2847 18.3273 17.2847ZM18.3273 19.2847C22.3048 19.2847 25.5293 15.4154 25.5293 10.6424C25.5293 5.86931 22.3048 2 18.3273 2C14.3498 2 11.1253 5.86931 11.1253 10.6424C11.1253 15.4154 14.3498 19.2847 18.3273 19.2847ZM30.7165 4.57129C29.6092 4.57129 28.4978 5.26971 27.6971 6.60828L25.9807 5.58162C27.024 3.83753 28.702 2.57129 30.7165 2.57129C32.5052 2.57129 34.0355 3.57418 35.0808 5.0174C36.1269 6.4618 36.7431 8.40744 36.7431 10.5114C36.7431 12.6153 36.1269 14.5609 35.0808 16.0053C34.8491 16.3251 34.5937 16.6233 34.3169 16.8938C39.3999 18.4177 43.0286 23.6907 43.0286 29.7602V30.7602H42.0286H36.0537V28.7602H40.9914C40.5518 22.8739 36.267 18.4514 31.2911 18.4514V18.4165C31.1028 18.4395 30.9112 18.4514 30.7165 18.4514V16.4514C31.704 16.4514 32.687 15.9007 33.461 14.8321C34.2341 13.7647 34.7431 12.2403 34.7431 10.5114C34.7431 8.78239 34.2341 7.25799 33.461 6.19058C32.687 5.12199 31.704 4.57129 30.7165 4.57129Z" fill="url(#paint0_linear)"/>
<path fill-rule="evenodd" clip-rule="evenodd" d="M44.0073 48.0554L39.7549 46.1451L40.5599 44.3143L44.8124 46.2246L44.0073 48.0554ZM44.0073 39.459L39.7549 42.3245L38.6537 40.6549L42.9061 37.7895L44.0073 39.459ZM47.7873 39.6082C49.4026 39.6082 50.7485 38.2787 50.7485 36.5936C50.7485 34.9085 49.4026 33.5791 47.7873 33.5791C46.172 33.5791 44.8261 34.9085 44.8261 36.5936C44.8261 38.2787 46.172 39.6082 47.7873 39.6082ZM47.7873 41.6082C50.5273 41.6082 52.7485 39.3631 52.7485 36.5936C52.7485 33.8242 50.5273 31.5791 47.7873 31.5791C45.0473 31.5791 42.8261 33.8242 42.8261 36.5936C42.8261 39.3631 45.0473 41.6082 47.7873 41.6082ZM35.5023 46.7718C37.1176 46.7718 38.4635 45.4423 38.4635 43.7572C38.4635 42.0721 37.1176 40.7427 35.5023 40.7427C33.887 40.7427 32.5411 42.0721 32.5411 43.7572C32.5411 45.4423 33.887 46.7718 35.5023 46.7718ZM35.5023 48.7718C38.2423 48.7718 40.4635 46.5267 40.4635 43.7572C40.4635 40.9878 38.2423 38.7427 35.5023 38.7427C32.7623 38.7427 30.5411 40.9878 30.5411 43.7572C30.5411 46.5267 32.7623 48.7718 35.5023 48.7718ZM48.9683 51.8931C50.5836 51.8931 51.9295 50.5637 51.9295 48.8786C51.9295 47.1934 50.5836 45.864 48.9683 45.864C47.353 45.864 46.0071 47.1934 46.0071 48.8786C46.0071 50.5637 47.353 51.8931 48.9683 51.8931ZM48.9683 53.8931C51.7083 53.8931 53.9295 51.648 53.9295 48.8786C53.9295 46.1091 51.7083 43.864 48.9683 43.864C46.2283 43.864 44.0071 46.1091 44.0071 48.8786C44.0071 51.648 46.2283 53.8931 48.9683 53.8931Z" fill="url(#paint1_linear)"/>
<defs>
<linearGradient id="paint0_linear" x1="11.2314" y1="20.7567" x2="39.5372" y2="20.8059" gradientUnits="userSpaceOnUse">
<stop stop-color="#6147E2"/>
<stop offset="0.515625" stop-color="#FFC120"/>
</linearGradient>
<linearGradient id="paint1_linear" x1="35.8035" y1="46.1317" x2="51.9393" y2="46.1523" gradientUnits="userSpaceOnUse">
<stop stop-color="#6147E2"/>
<stop offset="0.515625" stop-color="#FFC120"/>
</linearGradient>
</defs>
</svg>
